<svg xmlns="http://www.w3.org/2000/svg" version="1.1" xmlns:xlink="http://www.w3.org/1999/xlink" viewBox="0 0 200 200"><rect width="200" height="200" fill="url('#gradient')"></rect><defs><linearGradient id="gradient" gradientTransform="rotate(45 0.5 0.5)"><stop offset="0%" stop-color="#cfecec"></stop><stop offset="100%" stop-color="#abc7db"></stop></linearGradient></defs><g><g fill="#2a4a46" transform="matrix(6.880179171332586,0,0,6.880179171332586,10.21190445724153,148.92232970187538)" stroke="#2a4a46" stroke-width="0.2"><path d="M9.98 0L9.15-2.66L4.45-2.66L3.63 0L-0.03 0L5.19-14.22L8.41-14.22L13.66 0L9.98 0ZM6.80-10.23L5.27-5.30L8.33-5.30L6.80-10.23ZM26.13-7.60L26.13-1.76Q25.34-0.88 23.82-0.34Q22.29 0.20 20.48 0.20L20.48 0.20Q17.69 0.20 16.02-1.51Q14.35-3.22 14.23-6.27L14.23-6.27L14.22-7.50Q14.22-9.60 14.96-11.17Q15.70-12.73 17.08-13.58Q18.47-14.42 20.28-14.42L20.28-14.42Q22.94-14.42 24.41-13.21Q25.88-11.99 26.12-9.58L26.12-9.58L22.82-9.58Q22.65-10.77 22.06-11.28Q21.47-11.79 20.40-11.79L20.40-11.79Q19.11-11.79 18.41-10.69Q17.71-9.60 17.70-7.57L17.70-7.57L17.70-6.71Q17.70-4.58 18.42-3.51Q19.15-2.44 20.71-2.44L20.71-2.44Q22.05-2.44 22.71-3.04L22.71-3.04L22.71-5.24L20.32-5.24L20.32-7.60L26.13-7.60Z"></path></g></g></svg>