<svg xmlns="http://www.w3.org/2000/svg" version="1.1" xmlns:xlink="http://www.w3.org/1999/xlink" viewBox="0 0 200 200"><rect width="200" height="200" fill="url('#gradient')"></rect><defs><linearGradient id="gradient" gradientTransform="rotate(45 0.5 0.5)"><stop offset="0%" stop-color="#cfecec"></stop><stop offset="100%" stop-color="#abc7db"></stop></linearGradient></defs><g><g fill="#2a4a46" transform="matrix(7.447272727272727,0,0,7.447272727272727,2.026947001110429,152.20709896954622)" stroke="#2a4a46" stroke-width="0.2"><path d="M6.69-4.82L4.50-4.82L4.50 0L1.07 0L1.07-14.22L6.75-14.22Q8.38-14.22 9.63-13.62Q10.89-13.02 11.58-11.91Q12.27-10.80 12.27-9.39L12.27-9.39Q12.27-7.31 10.78-6.07Q9.29-4.82 6.69-4.82L6.69-4.82ZM4.50-11.57L4.50-7.47L6.75-7.47Q7.74-7.47 8.27-7.97Q8.79-8.47 8.79-9.38L8.79-9.38Q8.79-10.37 8.25-10.97Q7.71-11.56 6.79-11.57L6.79-11.57L4.50-11.57ZM21.82-14.22L25.24-14.22L25.24-4.91Q25.24-3.33 24.57-2.17Q23.90-1.02 22.64-0.41Q21.38 0.20 19.66 0.20L19.66 0.20Q17.06 0.20 15.57-1.15Q14.07-2.50 14.04-4.84L14.04-4.84L14.04-14.22L17.49-14.22L17.49-4.78Q17.55-2.44 19.66-2.44L19.66-2.44Q20.72-2.44 21.27-3.03Q21.82-3.61 21.82-4.93L21.82-4.93L21.82-14.22Z"></path></g></g></svg>